ply
format ascii 1.0
element vertex 38
property float x
property float y
property float z
end_header
1.89273 0.0107643 -1.0555
3.02049 -0.0152902 -0.767915
4.00695 0.038025 -0.821234
4.23577 0.0460797 -0.896644
4.97839 0.0462235 -1.45586
5.19622 0.0100672 -1.74104
5.36097 0.00435305 -1.96535
5.7406 7.14273e-008 -2.34756
6.11874 -0.0800675 -3.0632
6.01401 -0.028796 -5.06773
4.50022 0.0723863 -1.05326
5.25064 0.0113262 -6.15687
5.11474 -0.0123759 -6.2421
3.29368 0.00196468 -0.754843
4.38788 0.0332877 -6.71602
4.0743 0.0932924 -6.97914
3.55608 0.136652 -6.96001
0.930304 -0.059854 -1.74688
0.741138 -0.0342628 -2.01276
0.588854 0.0168556 -2.28216
0.514537 0.0129449 -2.41166
0.391785 -8.4049e-009 -2.54335
-0.0815098 0.0628291 -3.36642
-0.157922 0.0358819 -3.68211
0.305994 0.0737758 -5.27521
0.439685 0.0721489 -5.49271
0.00205545 0.0144771 -4.60202
0.053122 0.0555881 -3.05012
1.53411 -0.0722904 -7.18031
4.59352 0.0267787 -6.55355
3.28643 0.155285 -6.95347
1.75706 -0.0809883 -7.29661
2.07918 -0.0632728 -7.3835
2.69597 -0.00258691 -7.52422
2.90603 0.0260583 -7.60285
4.53018 -0.440797 -7.86072
4.5383 -0.441991 -7.87084
3.44505 -0.00949289 -7.82811
